<mxfile host="app.diagrams.net" modified="2024-01-21T19:27:28.048Z" agent="Mozilla/5.0 (Windows NT 10.0; Win64; x64) AppleWebKit/537.36 (KHTML, like Gecko) Chrome/120.0.0.0 Safari/537.36" etag="o6UHPAYIDXNgJjQiFDf0" version="22.1.21" type="device">
  <diagram name="Страница — 1" id="Gdg4Oq3OMzs8bkhmjxN4">
    <mxGraphModel dx="1500" dy="757" grid="1" gridSize="10" guides="1" tooltips="1" connect="1" arrows="1" fold="1" page="1" pageScale="1" pageWidth="827" pageHeight="1169" math="0" shadow="0">
      <root>
        <mxCell id="0" />
        <mxCell id="1" parent="0" />
        <mxCell id="GOmILOa2Kg6Qge0-il7a-5" value="Node 1, Zone 1" style="swimlane;whiteSpace=wrap;html=1;fillColor=#fff2cc;strokeColor=#d6b656;" vertex="1" parent="1">
          <mxGeometry width="266" height="340" as="geometry" />
        </mxCell>
        <mxCell id="GOmILOa2Kg6Qge0-il7a-1" value="postgres" style="rounded=0;whiteSpace=wrap;html=1;" vertex="1" parent="GOmILOa2Kg6Qge0-il7a-5">
          <mxGeometry x="73" y="50" width="120" height="60" as="geometry" />
        </mxCell>
        <mxCell id="GOmILOa2Kg6Qge0-il7a-2" value="patroni" style="rounded=0;whiteSpace=wrap;html=1;" vertex="1" parent="GOmILOa2Kg6Qge0-il7a-5">
          <mxGeometry x="73" y="130" width="120" height="60" as="geometry" />
        </mxCell>
        <mxCell id="GOmILOa2Kg6Qge0-il7a-3" value="etcd" style="rounded=0;whiteSpace=wrap;html=1;" vertex="1" parent="GOmILOa2Kg6Qge0-il7a-5">
          <mxGeometry x="73" y="210" width="120" height="60" as="geometry" />
        </mxCell>
        <mxCell id="GOmILOa2Kg6Qge0-il7a-6" value="&lt;b&gt;nofailover: false&lt;br&gt;nosynch: false&lt;/b&gt;" style="text;html=1;strokeColor=none;fillColor=none;align=center;verticalAlign=middle;whiteSpace=wrap;rounded=0;" vertex="1" parent="GOmILOa2Kg6Qge0-il7a-5">
          <mxGeometry x="84.5" y="290" width="97" height="30" as="geometry" />
        </mxCell>
        <mxCell id="GOmILOa2Kg6Qge0-il7a-7" value="Node 2, Zone 2" style="swimlane;whiteSpace=wrap;html=1;fillColor=#fff2cc;strokeColor=#d6b656;" vertex="1" parent="1">
          <mxGeometry x="330" width="266" height="340" as="geometry" />
        </mxCell>
        <mxCell id="GOmILOa2Kg6Qge0-il7a-8" value="postgres" style="rounded=0;whiteSpace=wrap;html=1;" vertex="1" parent="GOmILOa2Kg6Qge0-il7a-7">
          <mxGeometry x="73" y="50" width="120" height="60" as="geometry" />
        </mxCell>
        <mxCell id="GOmILOa2Kg6Qge0-il7a-9" value="patroni" style="rounded=0;whiteSpace=wrap;html=1;" vertex="1" parent="GOmILOa2Kg6Qge0-il7a-7">
          <mxGeometry x="73" y="130" width="120" height="60" as="geometry" />
        </mxCell>
        <mxCell id="GOmILOa2Kg6Qge0-il7a-10" value="etcd" style="rounded=0;whiteSpace=wrap;html=1;" vertex="1" parent="GOmILOa2Kg6Qge0-il7a-7">
          <mxGeometry x="73" y="210" width="120" height="60" as="geometry" />
        </mxCell>
        <mxCell id="GOmILOa2Kg6Qge0-il7a-11" value="&lt;b&gt;nofailover: false&lt;br&gt;nosynch: false&lt;/b&gt;" style="text;html=1;strokeColor=none;fillColor=none;align=center;verticalAlign=middle;whiteSpace=wrap;rounded=0;" vertex="1" parent="GOmILOa2Kg6Qge0-il7a-7">
          <mxGeometry x="84.5" y="290" width="97" height="30" as="geometry" />
        </mxCell>
        <mxCell id="GOmILOa2Kg6Qge0-il7a-12" value="Node 3" style="swimlane;whiteSpace=wrap;html=1;fillColor=#f8cecc;strokeColor=#b85450;" vertex="1" parent="1">
          <mxGeometry x="170" y="400" width="266" height="200" as="geometry" />
        </mxCell>
        <mxCell id="GOmILOa2Kg6Qge0-il7a-15" value="etcd" style="rounded=0;whiteSpace=wrap;html=1;" vertex="1" parent="GOmILOa2Kg6Qge0-il7a-12">
          <mxGeometry x="73" y="125" width="120" height="60" as="geometry" />
        </mxCell>
        <mxCell id="GOmILOa2Kg6Qge0-il7a-14" value="proxy" style="rounded=0;whiteSpace=wrap;html=1;" vertex="1" parent="GOmILOa2Kg6Qge0-il7a-12">
          <mxGeometry x="73" y="40" width="120" height="60" as="geometry" />
        </mxCell>
        <mxCell id="GOmILOa2Kg6Qge0-il7a-22" style="edgeStyle=orthogonalEdgeStyle;rounded=0;orthogonalLoop=1;jettySize=auto;html=1;exitX=0.5;exitY=0.5;exitDx=0;exitDy=0;exitPerimeter=0;entryX=1;entryY=0.5;entryDx=0;entryDy=0;" edge="1" parent="1" source="GOmILOa2Kg6Qge0-il7a-20" target="GOmILOa2Kg6Qge0-il7a-14">
          <mxGeometry relative="1" as="geometry">
            <mxPoint x="480.0000000000002" y="630" as="targetPoint" />
            <Array as="points">
              <mxPoint x="510" y="470" />
              <mxPoint x="510" y="470" />
            </Array>
          </mxGeometry>
        </mxCell>
        <mxCell id="GOmILOa2Kg6Qge0-il7a-20" value="&lt;b style=&quot;font-size: 14px;&quot;&gt;OLTP&lt;br&gt;OLAP&lt;br&gt;Backup&lt;br&gt;&lt;/b&gt;" style="shape=umlActor;verticalLabelPosition=bottom;verticalAlign=top;html=1;outlineConnect=0;" vertex="1" parent="1">
          <mxGeometry x="530" y="440" width="30" height="60" as="geometry" />
        </mxCell>
        <mxCell id="GOmILOa2Kg6Qge0-il7a-23" style="edgeStyle=orthogonalEdgeStyle;rounded=0;orthogonalLoop=1;jettySize=auto;html=1;exitX=0.5;exitY=0;exitDx=0;exitDy=0;entryX=1;entryY=0.5;entryDx=0;entryDy=0;startArrow=none;startFill=0;" edge="1" parent="1" source="GOmILOa2Kg6Qge0-il7a-14" target="GOmILOa2Kg6Qge0-il7a-2">
          <mxGeometry relative="1" as="geometry" />
        </mxCell>
        <mxCell id="GOmILOa2Kg6Qge0-il7a-24" style="edgeStyle=orthogonalEdgeStyle;rounded=0;orthogonalLoop=1;jettySize=auto;html=1;exitX=0.5;exitY=0;exitDx=0;exitDy=0;entryX=0;entryY=0.5;entryDx=0;entryDy=0;startArrow=none;startFill=0;" edge="1" parent="1" source="GOmILOa2Kg6Qge0-il7a-14" target="GOmILOa2Kg6Qge0-il7a-9">
          <mxGeometry relative="1" as="geometry" />
        </mxCell>
      </root>
    </mxGraphModel>
  </diagram>
</mxfile>
